<svg xmlns="http://www.w3.org/2000/svg" xmlns:xlink="http://www.w3.org/1999/xlink" width="100" height="100" viewBox="0 0 100 100"><defs><clipPath id="a"><rect width="100" height="100" transform="translate(290 1263)" fill="#fff" stroke="#707070" stroke-width="1"/></clipPath></defs><g transform="translate(-290 -1263)" clip-path="url(#a)"><g transform="translate(290 1263)"><path d="M2.083,100a2.083,2.083,0,0,1,0-4.167H4.167V79.167A4.171,4.171,0,0,1,8.333,75h8.333a4.171,4.171,0,0,1,4.167,4.167V95.833h8.333v-37.5a4.171,4.171,0,0,1,4.167-4.167h8.333a4.171,4.171,0,0,1,4.167,4.167v37.5h8.333V66.667A4.168,4.168,0,0,1,58.333,62.5h8.333a4.168,4.168,0,0,1,4.167,4.167V95.833h8.333V37.5a4.171,4.171,0,0,1,4.167-4.167h8.333A4.171,4.171,0,0,1,95.833,37.5V95.833h2.083a2.083,2.083,0,0,1,0,4.167Zm89.583-4.167V37.5H83.333V95.833Zm-25,0V66.667H58.333V95.833Zm-25,0v-37.5H33.333v37.5Zm-25,0V79.167H8.333V95.833Z" fill="#444"/><path d="M12.5,56.25a8.333,8.333,0,1,1,4.858-15.092L29.975,30.642a8.329,8.329,0,1,1,15.858-3.558c0,.188-.008.379-.021.571l9.7,3.233a8.3,8.3,0,0,1,10.65-2.946L79.954,11.854a8.349,8.349,0,1,1,2.7,3.25L69.325,30.654a8.329,8.329,0,1,1-15.158,4.762c0-.192.008-.383.021-.579l-9.7-3.233a8.3,8.3,0,0,1-11.846,2.237L20.025,44.358a8.232,8.232,0,0,1,.808,3.558A8.342,8.342,0,0,1,12.5,56.25Zm0-12.5a4.167,4.167,0,1,0,4.167,4.167A4.174,4.174,0,0,0,12.5,43.75Zm50-12.5a4.167,4.167,0,1,0,4.167,4.167A4.171,4.171,0,0,0,62.5,31.25Zm-25-8.333a4.167,4.167,0,1,0,4.167,4.167A4.174,4.174,0,0,0,37.5,22.917Zm50-18.75a4.167,4.167,0,1,0,4.167,4.167A4.171,4.171,0,0,0,87.5,4.167Z" fill="#444"/></g></g></svg>