<svg xmlns="http://www.w3.org/2000/svg" xmlns:xlink="http://www.w3.org/1999/xlink" width="100" height="100" viewBox="0 0 100 100"><defs><clipPath id="a"><rect width="100" height="100" transform="translate(530 1263)" fill="#fff" stroke="#707070" stroke-width="1"/></clipPath></defs><g transform="translate(-530 -1263)" clip-path="url(#a)"><g transform="translate(530 1263)"><path d="M14.583,93.75A14.6,14.6,0,0,1,0,79.167V37.5A14.6,14.6,0,0,1,14.583,22.917h18.75v-6.25A10.468,10.468,0,0,1,43.746,6.25h12.5A10.468,10.468,0,0,1,66.667,16.663v6.254h18.75A14.6,14.6,0,0,1,100,37.5V79.167A14.6,14.6,0,0,1,85.417,93.75Zm70.833-4.167A10.431,10.431,0,0,0,95.833,79.167V37.5A10.428,10.428,0,0,0,85.417,27.083H83.333v62.5Zm-6.25,0v-62.5H70.833v62.5Zm-12.5,0v-62.5H33.333v62.5Zm-37.5,0v-62.5H20.833v62.5Zm-14.583-62.5A10.426,10.426,0,0,0,4.167,37.5V79.167A10.428,10.428,0,0,0,14.583,89.583h2.083v-62.5ZM62.5,22.917v-6.25a6.288,6.288,0,0,0-6.254-6.25H43.754A6.292,6.292,0,0,0,37.5,16.671v6.246Z"/></g></g></svg>