<svg xmlns="http://www.w3.org/2000/svg" xmlns:xlink="http://www.w3.org/1999/xlink" width="100" height="100" viewBox="0 0 100 100"><defs><clipPath id="a"><rect width="100" height="100" transform="translate(770 1263)" fill="#fff" stroke="#707070" stroke-width="1"/></clipPath></defs><g transform="translate(-770 -1263)" clip-path="url(#a)"><g transform="translate(770 1263)"><path d="M47.917,100a6.258,6.258,0,0,1-6.25-6.25V86.067a51.335,51.335,0,0,1-9.679-3.342L26.408,88.3a6.252,6.252,0,0,1-8.837,0l-5.9-5.892a6.258,6.258,0,0,1,0-8.837l5.583-5.583a51.481,51.481,0,0,1-3.325-9.658H6.25A6.258,6.258,0,0,1,0,52.083V47.917a6.258,6.258,0,0,1,6.25-6.25h7.7a51.393,51.393,0,0,1,3.329-9.658L11.7,26.429a6.254,6.254,0,0,1,0-8.837l5.9-5.9a6.252,6.252,0,0,1,8.837,0l5.579,5.571a51.277,51.277,0,0,1,9.658-3.325V6.25A6.258,6.258,0,0,1,47.917,0h4.167a6.258,6.258,0,0,1,6.25,6.25v7.7a50.957,50.957,0,0,1,9.654,3.329L73.571,11.7a6.267,6.267,0,0,1,8.842,0l5.9,5.9a6.262,6.262,0,0,1,0,8.838l-5.567,5.575a51.524,51.524,0,0,1,3.329,9.663H93.75a6.258,6.258,0,0,1,6.25,6.25v4.167a6.258,6.258,0,0,1-6.25,6.25H86.067a51.3,51.3,0,0,1-3.342,9.675L88.3,73.592a6.252,6.252,0,0,1,0,8.838l-5.892,5.892a6.257,6.257,0,0,1-8.842,0l-5.588-5.579a51.3,51.3,0,0,1-9.65,3.325V93.75a6.258,6.258,0,0,1-6.25,6.25ZM31.558,78.125a2.112,2.112,0,0,1,.929.217,47.029,47.029,0,0,0,11.675,4,2.1,2.1,0,0,1,1.671,2.046V93.75a2.084,2.084,0,0,0,2.083,2.083h4.167a2.084,2.084,0,0,0,2.083-2.083V84.392a2.088,2.088,0,0,1,1.671-2.042,46.992,46.992,0,0,0,11.65-3.992,2.112,2.112,0,0,1,.929-.217,2.071,2.071,0,0,1,1.471.608l6.629,6.621a2.092,2.092,0,0,0,2.95,0l5.892-5.892a2.085,2.085,0,0,0,0-2.946l-6.621-6.625a2.079,2.079,0,0,1-.392-2.4,46.913,46.913,0,0,0,4-11.675,2.087,2.087,0,0,1,2.042-1.667H93.75a2.084,2.084,0,0,0,2.083-2.083V47.917a2.084,2.084,0,0,0-2.083-2.083H84.387a2.088,2.088,0,0,1-2.042-1.671A46.994,46.994,0,0,0,78.354,32.5a2.079,2.079,0,0,1,.392-2.4l6.608-6.617a2.085,2.085,0,0,0,0-2.946l-5.9-5.9a2.092,2.092,0,0,0-2.95,0l-6.625,6.621a2.082,2.082,0,0,1-2.4.387,46.889,46.889,0,0,0-11.646-3.988,2.092,2.092,0,0,1-1.667-2.042V6.25a2.084,2.084,0,0,0-2.083-2.083H47.917A2.084,2.084,0,0,0,45.833,6.25v9.367a2.091,2.091,0,0,1-1.675,2.042A46.906,46.906,0,0,0,32.5,21.65a2.081,2.081,0,0,1-.925.217,2.058,2.058,0,0,1-1.471-.612l-6.625-6.613a2.087,2.087,0,0,0-2.95,0l-5.892,5.9a2.085,2.085,0,0,0,0,2.946l6.625,6.621a2.079,2.079,0,0,1,.392,2.4,47.247,47.247,0,0,0-3.992,11.654,2.091,2.091,0,0,1-2.042,1.671H6.25a2.084,2.084,0,0,0-2.083,2.083v4.167A2.084,2.084,0,0,0,6.25,54.167h9.358a2.091,2.091,0,0,1,2.042,1.671A47.336,47.336,0,0,0,21.642,67.5a2.079,2.079,0,0,1-.392,2.4l-6.625,6.625a2.085,2.085,0,0,0,0,2.946l5.9,5.892a2.087,2.087,0,0,0,2.946,0l6.621-6.621A2.051,2.051,0,0,1,31.558,78.125Z" fill="#444"/><path d="M50,70.833A20.833,20.833,0,1,1,70.833,50,20.857,20.857,0,0,1,50,70.833Zm0-37.5A16.667,16.667,0,1,0,66.667,50,16.683,16.683,0,0,0,50,33.333Z" fill="#444"/></g></g></svg>