<svg xmlns="http://www.w3.org/2000/svg" xmlns:xlink="http://www.w3.org/1999/xlink" width="100" height="100" viewBox="0 0 100 100"><defs><clipPath id="a"><rect width="100" height="100" transform="translate(530 1433)" fill="#fff" stroke="#707070" stroke-width="1"/></clipPath></defs><g transform="translate(-530 -1433)" clip-path="url(#a)"><g transform="translate(530 1433)"><path d="M29.167,93.75a2.083,2.083,0,0,1,0-4.167h12.5V81.25H6.25A6.258,6.258,0,0,1,0,75V12.5A6.258,6.258,0,0,1,6.25,6.25h87.5A6.258,6.258,0,0,1,100,12.5V75a6.258,6.258,0,0,1-6.25,6.25H58.333v8.333h12.5a2.083,2.083,0,0,1,0,4.167Zm25-4.167V81.25H45.833v8.333ZM6.25,10.417A2.084,2.084,0,0,0,4.167,12.5V75A2.084,2.084,0,0,0,6.25,77.083h87.5A2.084,2.084,0,0,0,95.833,75V12.5a2.084,2.084,0,0,0-2.083-2.083Z" fill="#444"/><path d="M18.171,68.75a3.121,3.121,0,0,1-2.921-4.238l5.583-14.892v-14.2a2,2,0,0,1,.142-.729c.013-.037.067-.158.083-.192a2.144,2.144,0,0,1,.3-.446c.025-.029.121-.133.146-.158A2,2,0,0,1,22.1,33.5L49.621,21.7a6.266,6.266,0,0,1,4.925,0L77.6,31.583a4.164,4.164,0,0,1,0,7.663l-6.767,2.9V54.962a4.141,4.141,0,0,1-2.3,3.725L54.875,65.512a6.293,6.293,0,0,1-5.588,0L35.633,58.687a4.144,4.144,0,0,1-2.3-3.725V42.146L25,38.575V49.621l5.587,14.908a3.093,3.093,0,0,1,.2,1.125,3.125,3.125,0,0,1-3.121,3.1Zm7.987-4.167-3.242-8.65-3.242,8.65ZM37.5,54.962l13.654,6.825a2.1,2.1,0,0,0,1.858,0l13.654-6.825V43.933L54.546,49.125a6.266,6.266,0,0,1-4.925,0L37.5,43.933ZM51.263,45.3a2.109,2.109,0,0,0,.821.167,2.146,2.146,0,0,0,.825-.167l23.054-9.883L52.9,25.533a2.1,2.1,0,0,0-1.642,0L28.2,35.417Z" fill="#444"/></g></g></svg>