<svg xmlns="http://www.w3.org/2000/svg" xmlns:xlink="http://www.w3.org/1999/xlink" width="100" height="100" viewBox="0 0 100 100"><defs><clipPath id="a"><rect width="100" height="100" transform="translate(1010 1433)" fill="#fff" stroke="#707070" stroke-width="1"/></clipPath></defs><g transform="translate(-1010 -1433)" clip-path="url(#a)"><g transform="translate(1009.985 1433.013)"><path d="M2.1,99.973a2.06,2.06,0,0,1-1.475-.612A2.084,2.084,0,0,1,.217,97L12.863,70.44A46.67,46.67,0,1,1,53.136,93.571h0a46.608,46.608,0,0,1-23.577-6.444L3,99.778A2.2,2.2,0,0,1,2.1,99.973ZM53.094,4.166A42.558,42.558,0,0,0,17,69.219a2.073,2.073,0,0,1,.112,2L6.511,93.488,28.784,82.882a2.081,2.081,0,0,1,2,.108A42.457,42.457,0,0,0,53.144,89.4a43.022,43.022,0,0,0,9.814-1.141A42.612,42.612,0,0,0,53.273,4.166a.615.615,0,0,1-.087,0C53.165,4.17,53.123,4.166,53.094,4.166Z" fill="#444"/><circle cx="3.124" cy="3.124" r="3.124" transform="translate(33.341 37.49)" fill="#444"/><circle cx="3.124" cy="3.124" r="3.124" transform="translate(66.666 37.49)" fill="#444"/><path d="M53.128,66.649a12.512,12.512,0,0,1-12.5-12.5,2.084,2.084,0,0,1,2.083-2.083H63.541a2.084,2.084,0,0,1,2.083,2.083A12.512,12.512,0,0,1,53.128,66.649ZM45.059,56.235a8.334,8.334,0,0,0,16.137,0Z" fill="#444"/></g></g></svg>