<svg xmlns="http://www.w3.org/2000/svg" xmlns:xlink="http://www.w3.org/1999/xlink" width="100" height="100" viewBox="0 0 100 100"><defs><clipPath id="a"><rect width="100" height="100" transform="translate(770 1433)" fill="#fff" stroke="#707070" stroke-width="1"/></clipPath></defs><g transform="translate(-770 -1433)" clip-path="url(#a)"><g transform="translate(769.996 1432.997)"><path d="M72.933,100a2.081,2.081,0,0,1-1.475-.608L62.5,90.43a37.4,37.4,0,0,1-49.972,0L3.567,99.389a2.093,2.093,0,0,1-2.95,0,2.057,2.057,0,0,1-.608-1.475,2.081,2.081,0,0,1,.608-1.475L9.576,87.48A37.474,37.474,0,0,1,62.494,34.562l3.792-3.792L64.9,15.535a2.086,2.086,0,0,1,.6-1.663L78.762.613A2.074,2.074,0,0,1,80.237,0a2.314,2.314,0,0,1,.479.054,2.08,2.08,0,0,1,1.5,1.367L86.309,13.7l12.272,4.092a2.084,2.084,0,0,1,.813,3.45L86.134,34.508a2.1,2.1,0,0,1-1.475.608c-.029,0-.15,0-.179-.008L69.236,33.72l-3.792,3.792a37.4,37.4,0,0,1,0,49.972l8.959,8.963A2.081,2.081,0,0,1,72.933,100ZM37.512,29.161a33.4,33.4,0,1,0,24.982,11.3l-8.872,8.872a20.913,20.913,0,1,1-2.946-2.946l8.872-8.872A33.167,33.167,0,0,0,37.512,29.161Zm0,16.668A16.738,16.738,0,1,0,50.659,52.3L38.983,63.973a2.086,2.086,0,0,1-2.95-2.95L47.709,49.347A16.577,16.577,0,0,0,37.512,45.83ZM83.875,30.87,94.06,20.685,84,17.331a2.1,2.1,0,0,1-1.317-1.317L79.325,5.951,69.136,16.135,70.12,26.94,77.7,19.356a2.085,2.085,0,1,1,2.95,2.946L73.07,29.886Z"/></g></g></svg>