<svg xmlns="http://www.w3.org/2000/svg" xmlns:xlink="http://www.w3.org/1999/xlink" width="100" height="100" viewBox="0 0 100 100"><defs><clipPath id="a"><rect width="100" height="100" transform="translate(1010 1263)" fill="#fff" stroke="#707070" stroke-width="1"/></clipPath></defs><g transform="translate(-1010 -1263)" clip-path="url(#a)"><g transform="translate(1010 1263)"><path d="M72.917,54.167A27.083,27.083,0,1,1,100,27.083,27.115,27.115,0,0,1,72.917,54.167Zm0-50A22.917,22.917,0,1,0,95.833,27.083,22.941,22.941,0,0,0,72.917,4.167Z" fill="#444"/><path d="M72.917,41.667a2.084,2.084,0,0,1-2.083-2.083V19.612l-5.817,5.817a2.092,2.092,0,0,1-2.95,0,2.047,2.047,0,0,1-.608-1.471,2.081,2.081,0,0,1,.608-1.475l9.375-9.375a2.09,2.09,0,0,1,.679-.454,2.164,2.164,0,0,1,.8-.154,2.086,2.086,0,0,1,.8.158,2.124,2.124,0,0,1,.679.45l9.375,9.375a2.086,2.086,0,0,1-2.95,2.95L75,19.612V39.583A2.084,2.084,0,0,1,72.917,41.667Z" fill="#444"/><path d="M27.083,100a2.083,2.083,0,0,1,0-4.167h5.2a26.9,26.9,0,0,0,5-12.5H6.25A6.258,6.258,0,0,1,0,77.083V22.917a6.258,6.258,0,0,1,6.25-6.25H39.583a2.083,2.083,0,0,1,0,4.167H6.25a2.084,2.084,0,0,0-2.083,2.083v43.75H87.5V56.25a2.083,2.083,0,1,1,4.167,0V77.083a6.258,6.258,0,0,1-6.25,6.25H54.379a26.912,26.912,0,0,0,5,12.5h5.2a2.083,2.083,0,0,1,0,4.167Zm27.3-4.167a31.13,31.13,0,0,1-4.2-12.5h-8.7a31.194,31.194,0,0,1-4.2,12.5ZM4.167,77.083A2.084,2.084,0,0,0,6.25,79.167H85.417A2.084,2.084,0,0,0,87.5,77.083v-6.25H4.167Z" fill="#444"/></g></g></svg>