<svg xmlns="http://www.w3.org/2000/svg" xmlns:xlink="http://www.w3.org/1999/xlink" width="100" height="100" viewBox="0 0 100 100"><defs><clipPath id="a"><rect width="100" height="100" transform="translate(290 1433)" fill="#fff" stroke="#707070" stroke-width="1"/></clipPath></defs><g transform="translate(-290 -1433)" clip-path="url(#a)"><g transform="translate(290 1433)"><path d="M22.917,67.708a6.258,6.258,0,0,1-6.25-6.25V29.75L3.158,26.375A4.159,4.159,0,0,1,0,22.333V19.792a6.258,6.258,0,0,1,6.25-6.25H16.667a4.174,4.174,0,0,1,4.167,4.167v43.75a2.084,2.084,0,0,0,2.083,2.083h6.25V40.625a6.258,6.258,0,0,1,6.25-6.25H56.25a6.262,6.262,0,0,1,6.033,4.617,6.1,6.1,0,0,1,2.3-.45h25a6.258,6.258,0,0,1,6.25,6.25v18.75h2.083a2.083,2.083,0,1,1,0,4.167Zm68.75-4.167V44.792a2.084,2.084,0,0,0-2.083-2.083h-25A2.084,2.084,0,0,0,62.5,44.792v18.75Zm-33.333,0V40.625a2.084,2.084,0,0,0-2.083-2.083H35.417a2.084,2.084,0,0,0-2.083,2.083V63.542ZM6.25,17.708a2.084,2.084,0,0,0-2.083,2.083v2.542l12.5,3.125v-7.75Z" fill="#444"/><path d="M25,86.458a8.333,8.333,0,1,1,8.333-8.333A8.342,8.342,0,0,1,25,86.458Zm0-12.5a4.167,4.167,0,1,0,4.167,4.167A4.171,4.171,0,0,0,25,73.958Z" fill="#444"/><path d="M91.667,86.458A8.333,8.333,0,1,1,100,78.125,8.342,8.342,0,0,1,91.667,86.458Zm0-12.5a4.167,4.167,0,1,0,4.167,4.167A4.168,4.168,0,0,0,91.667,73.958Z" fill="#444"/><path d="M47.917,59.375a2.083,2.083,0,1,1,0-4.167h4.167a2.083,2.083,0,0,1,0,4.167Z" fill="#444"/><path d="M81.25,59.375a2.083,2.083,0,1,1,0-4.167h4.167a2.083,2.083,0,1,1,0,4.167Z" fill="#444"/><path d="M77.083,34.375A2.084,2.084,0,0,1,75,32.292v-12.5a2.084,2.084,0,0,0-2.083-2.083H52.083A2.084,2.084,0,0,0,50,19.792v8.333a2.083,2.083,0,1,1-4.167,0V19.792a6.258,6.258,0,0,1,6.25-6.25H72.917a6.258,6.258,0,0,1,6.25,6.25v12.5A2.084,2.084,0,0,1,77.083,34.375Z" fill="#444"/></g></g></svg>