<svg xmlns="http://www.w3.org/2000/svg" xmlns:xlink="http://www.w3.org/1999/xlink" width="40" height="40" viewBox="0 0 40 40"><defs><clipPath id="a"><rect width="40" height="40" fill="#fff" stroke="#707070" stroke-width="1"/></clipPath></defs><g clip-path="url(#a)"><rect width="40" height="40" rx="6" fill="#444"/><path d="M33.359,13.2a3.551,3.551,0,0,0-2.5-2.422c-2.656-.7-18.672-.781-21.719,0a3.551,3.551,0,0,0-2.5,2.422c-.7,2.969-.781,10.547,0,13.594a3.551,3.551,0,0,0,2.5,2.422c2.813.781,18.828.781,21.719,0a3.551,3.551,0,0,0,2.5-2.422,44.065,44.065,0,0,0,0-13.594" fill="#fff"/><path d="M17.188,15.859v8.281L24.453,20" fill="#444"/></g></svg>